<?xml version="1.0" encoding="UTF-8" ?>
<!DOCTYPE svg PUBLIC "-//W3C//DTD SVG 1.1//EN" "http://www.w3.org/Graphics/SVG/1.1/DTD/svg11.dtd">
<svg width="19pt" height="19pt" viewBox="0 0 425 425" version="1.1" xmlns="http://www.w3.org/2000/svg">
<g id="#e8f4e7ff">
<path fill="#e8f4e7" opacity="1.00" d=" M 95.64 0.00 L 327.63 0.00 C 352.62 0.15 377.35 10.30 395.19 27.79 C 413.41 45.32 424.28 70.08 425.00 95.34 L 425.00 330.10 C 423.99 354.90 413.33 379.14 395.49 396.43 C 380.36 411.35 360.26 421.11 339.16 423.71 C 330.81 424.82 322.36 424.48 313.96 424.53 C 242.32 424.53 170.68 424.55 99.04 424.52 C 75.56 424.62 52.15 416.01 34.47 400.54 C 16.69 385.25 4.68 363.40 1.48 340.15 C 0.12 331.16 0.53 322.05 0.47 313.00 C 0.49 241.01 0.44 169.02 0.50 97.03 C 0.69 70.85 11.99 45.04 31.03 27.09 C 48.28 10.52 71.75 0.78 95.64 0.00 M 287.57 79.76 C 275.55 81.78 264.36 88.21 256.47 97.49 C 247.38 108.00 242.82 122.25 244.08 136.09 C 245.21 149.96 252.21 163.19 262.95 172.01 C 273.43 180.79 287.45 185.16 301.07 183.89 C 315.66 182.70 329.49 174.97 338.29 163.30 C 346.37 152.77 350.18 139.09 348.68 125.89 C 347.21 111.44 339.31 97.80 327.55 89.27 C 316.27 80.78 301.45 77.34 287.57 79.76 M 138.01 111.91 C 137.99 179.94 137.99 247.98 138.01 316.02 C 137.61 323.06 143.99 329.39 151.03 328.98 C 189.37 329.02 227.71 329.00 266.05 328.99 C 266.10 313.95 266.00 298.91 266.09 283.88 C 266.10 277.57 271.65 271.94 277.95 271.81 C 290.96 271.63 303.97 271.79 316.98 271.74 C 317.02 244.72 316.99 217.70 317.00 190.69 C 298.49 197.10 277.05 194.34 260.97 183.07 C 246.39 173.11 236.38 156.72 234.35 139.16 C 232.59 125.29 235.76 110.95 242.97 99.00 C 212.30 99.01 181.63 98.98 150.96 99.02 C 144.00 98.66 137.68 104.95 138.01 111.91 M 289.85 283.03 C 283.78 283.41 278.64 288.94 278.58 295.00 C 278.45 306.31 278.56 317.63 278.54 328.94 C 291.38 313.38 304.18 297.78 316.98 282.18 C 307.94 282.50 298.89 282.58 289.85 283.03 Z" />
<path fill="#e8f4e7" opacity="1.00" d=" M 308.46 107.97 C 313.41 112.76 318.25 117.66 323.16 122.48 C 309.05 136.69 294.84 150.80 280.71 164.98 C 275.81 165.02 270.90 165.00 266.00 165.00 C 266.02 160.10 265.93 155.20 266.07 150.30 C 280.27 136.27 294.34 122.09 308.46 107.97 Z" />
<path fill="#e8f4e7" opacity="1.00" d=" M 159.43 116.62 C 180.63 116.28 201.86 116.53 223.07 116.49 C 225.58 116.25 227.73 118.54 227.51 121.03 C 227.72 124.11 228.08 129.14 223.96 129.64 C 202.96 129.86 181.94 129.69 160.94 129.72 C 158.28 130.06 155.96 127.73 156.23 125.08 C 156.13 122.12 155.55 117.40 159.43 116.62 Z" />
<path fill="#e8f4e7" opacity="1.00" d=" M 158.33 144.39 C 159.76 143.67 161.45 143.95 163.00 143.84 C 183.37 143.99 203.76 143.68 224.13 143.99 C 228.28 144.69 227.65 149.82 227.49 152.95 C 227.57 155.32 225.41 157.32 223.06 157.10 C 202.35 157.16 181.63 157.14 160.92 157.11 C 158.56 157.40 156.21 155.52 156.27 153.09 C 156.30 150.19 155.33 146.18 158.33 144.39 Z" />
<path fill="#e8f4e7" opacity="1.00" d=" M 159.43 170.57 C 180.27 170.16 201.16 170.52 222.02 170.39 C 224.38 170.11 227.27 171.34 227.41 174.03 C 227.58 176.57 227.94 179.36 226.87 181.74 C 225.71 183.84 223.10 183.75 221.04 183.76 C 201.02 183.69 181.00 183.79 160.98 183.71 C 158.32 184.02 155.95 181.70 156.23 179.04 C 156.13 176.06 155.56 171.38 159.43 170.57 Z" />
<path fill="#e8f4e7" opacity="1.00" d=" M 159.25 197.44 C 160.48 197.15 161.74 197.02 163.02 197.06 C 205.34 197.09 247.66 197.06 289.98 197.07 C 292.18 196.98 295.19 197.47 295.84 199.98 C 296.15 202.56 296.19 205.21 295.75 207.78 C 294.72 209.93 292.10 210.29 289.98 210.27 C 247.31 210.25 204.65 210.29 161.98 210.24 C 159.47 210.44 156.17 209.02 156.49 206.03 C 156.49 203.08 155.51 198.51 159.25 197.44 Z" />
<path fill="#e8f4e7" opacity="1.00" d=" M 159.19 223.28 C 160.44 222.97 161.72 222.83 163.03 222.86 C 205.34 222.88 247.66 222.86 289.97 222.87 C 292.51 222.65 296.17 223.75 295.97 226.91 C 295.94 229.35 296.54 232.11 295.29 234.32 C 293.78 236.18 291.20 236.03 289.05 236.09 C 246.68 236.03 204.31 236.11 161.95 236.05 C 159.47 236.23 156.21 234.88 156.49 231.92 C 156.52 228.96 155.47 224.41 159.19 223.28 Z" />
<path fill="#e8f4e7" opacity="1.00" d=" M 159.39 249.50 C 162.23 248.94 165.15 249.25 168.02 249.20 C 208.70 249.20 249.38 249.21 290.07 249.19 C 292.24 249.10 295.05 249.61 295.82 251.99 C 296.15 254.59 296.18 257.26 295.76 259.85 C 294.81 262.03 292.17 262.43 290.06 262.40 C 247.38 262.39 204.69 262.42 162.00 262.38 C 159.39 262.63 156.04 261.04 156.47 257.96 C 156.44 255.01 155.61 250.48 159.39 249.50 Z" />
<path fill="#e8f4e7" opacity="1.00" d=" M 158.34 275.43 C 180.88 275.03 203.47 275.39 226.03 275.26 C 227.83 274.97 229.79 275.95 229.85 277.96 C 230.11 280.85 230.27 283.83 229.65 286.68 C 229.05 288.71 226.69 288.46 225.03 288.49 C 203.34 288.41 181.65 288.52 159.96 288.44 C 156.82 288.98 156.27 285.26 156.42 282.97 C 156.63 280.48 155.71 276.91 158.34 275.43 Z" />
</g>
<g id="#43a748ff">
<path fill="#43a748" opacity="1.00" d=" M 287.57 79.76 C 301.45 77.34 316.27 80.78 327.55 89.27 C 339.31 97.80 347.21 111.44 348.68 125.89 C 350.18 139.09 346.37 152.77 338.29 163.30 C 329.49 174.97 315.66 182.70 301.07 183.89 C 287.45 185.16 273.43 180.79 262.95 172.01 C 252.21 163.19 245.21 149.96 244.08 136.09 C 242.82 122.25 247.38 108.00 256.47 97.49 C 264.36 88.21 275.55 81.78 287.57 79.76 M 313.28 104.12 C 318.04 109.02 322.82 113.92 327.88 118.51 C 330.49 115.54 333.71 112.93 335.48 109.34 C 335.75 105.97 331.99 104.11 330.13 101.78 C 327.62 99.79 325.70 95.97 322.11 96.14 C 318.50 97.87 316.13 101.40 313.28 104.12 M 308.46 107.97 C 294.34 122.09 280.27 136.27 266.07 150.30 C 265.93 155.20 266.02 160.10 266.00 165.00 C 270.90 165.00 275.81 165.02 280.71 164.98 C 294.84 150.80 309.05 136.69 323.16 122.48 C 318.25 117.66 313.41 112.76 308.46 107.97 Z" />
</g>
<g id="#68bf6eff">
<path fill="#68bf6e" opacity="1.00" d=" M 313.28 104.12 C 316.13 101.40 318.50 97.87 322.11 96.14 C 325.70 95.97 327.62 99.79 330.13 101.78 C 331.99 104.11 335.75 105.97 335.48 109.34 C 333.71 112.93 330.49 115.54 327.88 118.51 C 322.82 113.92 318.04 109.02 313.28 104.12 Z" />
<path fill="#68bf6e" opacity="1.00" d=" M 138.01 111.91 C 137.68 104.95 144.00 98.66 150.96 99.02 C 181.63 98.98 212.30 99.01 242.97 99.00 C 235.76 110.95 232.59 125.29 234.35 139.16 C 236.38 156.72 246.39 173.11 260.97 183.07 C 277.05 194.34 298.49 197.10 317.00 190.69 C 316.99 217.70 317.02 244.72 316.98 271.74 C 303.97 271.79 290.96 271.63 277.95 271.81 C 271.65 271.94 266.10 277.57 266.09 283.88 C 266.00 298.91 266.10 313.95 266.05 328.99 C 227.71 329.00 189.37 329.02 151.03 328.98 C 143.99 329.39 137.61 323.06 138.01 316.02 C 137.99 247.98 137.99 179.94 138.01 111.91 M 159.43 116.62 C 155.55 117.40 156.13 122.12 156.23 125.08 C 155.96 127.73 158.28 130.06 160.94 129.72 C 181.94 129.69 202.96 129.86 223.96 129.64 C 228.08 129.14 227.72 124.11 227.51 121.03 C 227.73 118.54 225.58 116.25 223.07 116.49 C 201.86 116.53 180.63 116.28 159.43 116.62 M 158.33 144.39 C 155.33 146.18 156.30 150.19 156.27 153.09 C 156.21 155.52 158.56 157.40 160.92 157.11 C 181.63 157.14 202.35 157.16 223.06 157.10 C 225.41 157.32 227.57 155.32 227.49 152.95 C 227.65 149.82 228.28 144.69 224.13 143.99 C 203.76 143.68 183.37 143.99 163.00 143.84 C 161.45 143.95 159.76 143.67 158.33 144.39 M 159.43 170.57 C 155.56 171.38 156.13 176.06 156.23 179.04 C 155.95 181.70 158.32 184.02 160.98 183.71 C 181.00 183.79 201.02 183.69 221.04 183.76 C 223.10 183.75 225.71 183.84 226.87 181.74 C 227.94 179.36 227.58 176.57 227.41 174.03 C 227.27 171.34 224.38 170.11 222.02 170.39 C 201.16 170.52 180.27 170.16 159.43 170.57 M 159.25 197.44 C 155.51 198.51 156.49 203.08 156.49 206.03 C 156.17 209.02 159.47 210.44 161.98 210.24 C 204.65 210.29 247.31 210.25 289.98 210.27 C 292.10 210.29 294.72 209.93 295.75 207.78 C 296.19 205.21 296.15 202.56 295.84 199.98 C 295.19 197.47 292.18 196.98 289.98 197.07 C 247.66 197.06 205.34 197.09 163.02 197.06 C 161.74 197.02 160.48 197.15 159.25 197.44 M 159.19 223.28 C 155.47 224.41 156.52 228.96 156.49 231.92 C 156.21 234.88 159.47 236.23 161.95 236.05 C 204.31 236.11 246.68 236.03 289.05 236.09 C 291.20 236.03 293.78 236.18 295.29 234.32 C 296.54 232.11 295.94 229.35 295.97 226.91 C 296.17 223.75 292.51 222.65 289.97 222.87 C 247.66 222.86 205.34 222.88 163.03 222.86 C 161.72 222.83 160.44 222.97 159.19 223.28 M 159.39 249.50 C 155.61 250.48 156.44 255.01 156.47 257.96 C 156.04 261.04 159.39 262.63 162.00 262.38 C 204.69 262.42 247.38 262.39 290.06 262.40 C 292.17 262.43 294.81 262.03 295.76 259.85 C 296.18 257.26 296.15 254.59 295.82 251.99 C 295.05 249.61 292.24 249.10 290.07 249.19 C 249.38 249.21 208.70 249.20 168.02 249.20 C 165.15 249.25 162.23 248.94 159.39 249.50 M 158.34 275.43 C 155.71 276.91 156.63 280.48 156.42 282.97 C 156.27 285.26 156.82 288.98 159.96 288.44 C 181.65 288.52 203.34 288.41 225.03 288.49 C 226.69 288.46 229.05 288.71 229.65 286.68 C 230.27 283.83 230.11 280.85 229.85 277.96 C 229.79 275.95 227.83 274.97 226.03 275.26 C 203.47 275.39 180.88 275.03 158.34 275.43 Z" />
<path fill="#68bf6e" opacity="1.00" d=" M 289.85 283.03 C 298.89 282.58 307.94 282.50 316.98 282.18 C 304.18 297.78 291.38 313.38 278.54 328.94 C 278.56 317.63 278.45 306.31 278.58 295.00 C 278.64 288.94 283.78 283.41 289.85 283.03 Z" />
</g>
</svg>
